<svg width="1440" height="900" viewBox="0 0 1440 900" fill="none" xmlns="http://www.w3.org/2000/svg">
  <defs>
    <filter id="windowShadow" x="36" y="32" width="1368" height="836" filterUnits="userSpaceOnUse" color-interpolation-filters="sRGB">
      <feDropShadow dx="0" dy="24" stdDeviation="28" flood-color="#24332F" flood-opacity="0.12"/>
    </filter>
    <filter id="cardShadow" x="-20%" y="-20%" width="140%" height="150%" filterUnits="objectBoundingBox" color-interpolation-filters="sRGB">
      <feDropShadow dx="0" dy="12" stdDeviation="16" flood-color="#25362F" flood-opacity="0.08"/>
    </filter>
    <style>
      .font { font-family: Geist, ui-sans-serif, system-ui, -apple-system, BlinkMacSystemFont, "Segoe UI", sans-serif; }
      .mono { font-family: "SF Mono", "Roboto Mono", ui-monospace, monospace; }
    </style>
  </defs>

  <rect width="1440" height="900" fill="#EEF3F0"/>
  <rect x="56" y="46" width="1328" height="808" rx="28" fill="#FBFDFB" filter="url(#windowShadow)"/>
  <rect x="56" y="46" width="1328" height="808" rx="28" stroke="#C8D7D1"/>

  <rect x="56" y="46" width="1328" height="58" rx="28" fill="#F8FBF9"/>
  <path d="M56 104H1384" stroke="#D9E4DF"/>
  <circle cx="88" cy="75" r="7" fill="#D8A5A5"/>
  <circle cx="114" cy="75" r="7" fill="#E3C874"/>
  <circle cx="140" cy="75" r="7" fill="#8FC5A6"/>
  <text x="178" y="81" class="font" fill="#20332E" font-size="16" font-weight="760">Margent</text>
  <text x="268" y="81" class="font" fill="#6D7E77" font-size="15" font-weight="560">文件</text>
  <text x="320" y="81" class="font" fill="#6D7E77" font-size="15" font-weight="560">窗口</text>
  <text x="372" y="81" class="font" fill="#6D7E77" font-size="15" font-weight="560">设置</text>

  <rect x="88" y="126" width="1264" height="72" rx="18" fill="#EFF5F2" stroke="#D2E1DA"/>
  <rect x="112" y="143" width="344" height="38" rx="12" fill="#FFFFFF" stroke="#BBD5CA" filter="url(#cardShadow)"/>
  <circle cx="136" cy="162" r="6" fill="#6FA18C"/>
  <text x="154" y="168" class="font" fill="#1B332B" font-size="15" font-weight="800">基础体验增强 PRD.md</text>
  <text x="426" y="168" class="font" fill="#70837B" font-size="15" font-weight="650">×</text>

  <rect x="468" y="143" width="266" height="38" rx="12" fill="#F8FBF9" stroke="#D8E4DF"/>
  <circle cx="492" cy="162" r="5" fill="#C29B3E"/>
  <text x="510" y="168" class="font" fill="#4D625B" font-size="15" font-weight="720">Feature List.md</text>
  <text x="704" y="168" class="font" fill="#70837B" font-size="15" font-weight="650">×</text>

  <rect x="746" y="143" width="330" height="38" rx="12" fill="#F8FBF9" stroke="#D8E4DF"/>
  <rect x="766" y="153" width="52" height="18" rx="9" fill="#E1ECFF"/>
  <text x="778" y="167" class="font" fill="#315C98" font-size="11" font-weight="820">更新</text>
  <text x="830" y="168" class="font" fill="#4D625B" font-size="15" font-weight="720">文档轻编辑技术方案.md</text>
  <text x="1046" y="168" class="font" fill="#70837B" font-size="15" font-weight="650">×</text>

  <rect x="1094" y="143" width="98" height="38" rx="12" fill="#F8FBF9" stroke="#D8E4DF"/>
  <path d="M1118 162H1136M1127 153V171" stroke="#405951" stroke-width="2.4" stroke-linecap="round"/>
  <text x="1150" y="168" class="font" fill="#405951" font-size="15" font-weight="780">打开</text>

  <rect x="1212" y="143" width="114" height="38" rx="12" fill="#F8FBF9" stroke="#D8E4DF"/>
  <text x="1234" y="168" class="font" fill="#405951" font-size="15" font-weight="760">更多文档</text>

  <rect x="88" y="226" width="244" height="580" rx="18" fill="#F4F8F6" stroke="#D7E5DF"/>
  <text x="120" y="274" class="font" fill="#243831" font-size="22" font-weight="800">文档结构</text>
  <rect x="116" y="310" width="184" height="36" rx="10" fill="#FFFFFF" stroke="#DDE7E2"/>
  <text x="134" y="334" class="font" fill="#50655D" font-size="14" font-weight="700">1. 文档信息</text>
  <text x="134" y="382" class="font" fill="#50655D" font-size="14" font-weight="700">2. 模块目标</text>
  <text x="134" y="430" class="font" fill="#50655D" font-size="14" font-weight="700">3. 用户价值</text>
  <rect x="116" y="456" width="188" height="40" rx="10" fill="#E3F0EA" stroke="#C5DCD1"/>
  <text x="134" y="482" class="font" fill="#1F5647" font-size="14" font-weight="820">5.8 同时打开多个文档</text>
  <text x="134" y="534" class="font" fill="#6E7F78" font-size="14" font-weight="650">8.8 打开与切换流程</text>
  <text x="134" y="582" class="font" fill="#6E7F78" font-size="14" font-weight="650">10.8 验收标准</text>

  <rect x="364" y="226" width="650" height="580" rx="18" fill="#FFFFFF" stroke="#DDE8E3"/>
  <rect x="408" y="270" width="368" height="38" rx="10" fill="#F5F8F6" stroke="#E0E9E4"/>
  <text x="428" y="294" class="mono" fill="#72827B" font-size="13">docs/Margent 基础体验增强 PRD.md</text>
  <rect x="790" y="270" width="78" height="38" rx="11" fill="#F8FBF9" stroke="#D8E4DF"/>
  <path d="M811 285H824V298H811V285Z" stroke="#405951" stroke-width="2" stroke-linejoin="round"/>
  <path d="M814 291H821" stroke="#405951" stroke-width="2" stroke-linecap="round"/>
  <text x="837" y="294" class="font" fill="#405951" font-size="14" font-weight="760">批注</text>
  <rect x="878" y="270" width="78" height="38" rx="11" fill="#183A32"/>
  <path d="M901 296L902.5 290.5L911 282L916 287L907.5 295.5L901 296Z" stroke="#F8FCFA" stroke-width="2" stroke-linejoin="round"/>
  <text x="925" y="294" class="font" fill="#F8FCFA" font-size="14" font-weight="780">编辑</text>
  <text x="408" y="366" class="font" fill="#12251E" font-size="34" font-weight="860">5.8 同时打开多个文档</text>
  <text x="408" y="410" class="font" fill="#4B5F58" font-size="17" font-weight="520">打开新文件时，不替换当前文档，而是加入已打开文档列表。</text>
  <rect x="408" y="462" width="548" height="18" rx="9" fill="#EAF1EE"/>
  <rect x="408" y="506" width="492" height="18" rx="9" fill="#EAF1EE"/>
  <rect x="408" y="550" width="530" height="18" rx="9" fill="#EAF1EE"/>

  <rect x="408" y="622" width="548" height="104" rx="16" fill="#F7FAF8" stroke="#D8E5DF"/>
  <text x="436" y="660" class="font" fill="#20332E" font-size="17" font-weight="820">文档级状态隔离</text>
  <text x="436" y="694" class="font" fill="#63776F" font-size="15">阅读位置、批注、草稿、外部刷新、Codex 连接互不串线。</text>
  <rect x="786" y="646" width="142" height="36" rx="18" fill="#E7F0EC"/>
  <text x="818" y="669" class="font" fill="#365C51" font-size="13" font-weight="780">documentId</text>

  <rect x="1046" y="226" width="306" height="580" rx="18" fill="#F4F8F6" stroke="#D7E5DF"/>
  <text x="1080" y="274" class="font" fill="#243831" font-size="22" font-weight="800">批注</text>
  <rect x="1080" y="310" width="238" height="42" rx="12" fill="#EAF1EE"/>
  <text x="1131" y="337" class="font" fill="#415A52" font-size="15" font-weight="780">当前文档独立</text>

  <rect x="1080" y="386" width="238" height="132" rx="14" fill="#FFFFFF" stroke="#C8DDD4" filter="url(#cardShadow)"/>
  <rect x="1102" y="410" width="76" height="26" rx="13" fill="#DDF0E8"/>
  <circle cx="1117" cy="423" r="6" fill="none" stroke="#33846C" stroke-width="2"/>
  <text x="1130" y="428" class="font" fill="#23715F" font-size="13" font-weight="820">已解决</text>
  <text x="1102" y="466" class="font" fill="#2D443D" font-size="15" font-weight="590">多文档切换不影响批注状态</text>
  <text x="1102" y="494" class="font" fill="#7B8C85" font-size="13">1 条回复 · 16:24</text>

  <rect x="1080" y="548" width="238" height="110" rx="14" fill="#FFF8E8" stroke="#E6D2A1"/>
  <rect x="1102" y="572" width="64" height="24" rx="12" fill="#E2ECFF"/>
  <text x="1115" y="589" class="font" fill="#315C98" font-size="12" font-weight="820">后台更新</text>
  <text x="1102" y="628" class="font" fill="#6B5729" font-size="14" font-weight="590">切回这个文档时再应用刷新，</text>
  <text x="1102" y="650" class="font" fill="#6B5729" font-size="14" font-weight="590">不打断当前阅读。</text>

  <rect x="1080" y="686" width="238" height="56" rx="14" fill="#FFFFFF" stroke="#D8E4DF"/>
  <text x="1102" y="720" class="font" fill="#405951" font-size="14" font-weight="780">@codex 按当前文档投递</text>
</svg>
